<svg xmlns="http://www.w3.org/2000/svg" viewBox="0 0 321 102"><path d="M40.83,71.86a19.69,19.69,0,0,1-9.57-2.3,17,17,0,0,1-6.74-6.66A20.89,20.89,0,0,1,22,52.42v-34h6.62V40.83h.15A13.43,13.43,0,0,1,32,36.94a15.25,15.25,0,0,1,4.54-2.59,15.53,15.53,0,0,1,5.36-.93,18.08,18.08,0,0,1,9.15,2.3,16.72,16.72,0,0,1,6.37,6.52,20.19,20.19,0,0,1,2.34,10,22.44,22.44,0,0,1-1.41,8.17,18.2,18.2,0,0,1-3.92,6.23,16.46,16.46,0,0,1-6,3.92A21,21,0,0,1,40.83,71.86Zm0-5.68A11.73,11.73,0,0,0,47,64.52a12,12,0,0,0,4.43-4.68,14.84,14.84,0,0,0,1.65-7.2,14.74,14.74,0,0,0-1.62-7.06,12.48,12.48,0,0,0-4.35-4.75,11.4,11.4,0,0,0-6.2-1.73,11.63,11.63,0,0,0-10.54,6.38,15.25,15.25,0,0,0-1.62,7.23,14.89,14.89,0,0,0,1.62,7.13,11.74,11.74,0,0,0,4.39,4.68A11.58,11.58,0,0,0,40.83,66.18Z"/><path d="M83.53,71.86a16.41,16.41,0,0,1-9.22-2.55,16.73,16.73,0,0,1-6-7,22.25,22.25,0,0,1-2.09-9.72,20.52,20.52,0,0,1,2.3-9.76A17.41,17.41,0,0,1,75.18,36a20,20,0,0,1,10.36-2.55,19,19,0,0,1,10,2.52A17.26,17.26,0,0,1,102,42.78a20.43,20.43,0,0,1,2.26,9.64V71H97.57V63.51h-.15a17.25,17.25,0,0,1-2.91,4,14.63,14.63,0,0,1-4.57,3.13A15.57,15.57,0,0,1,83.53,71.86Zm1.73-5.68a11.6,11.6,0,0,0,6.37-1.77A12,12,0,0,0,96,59.52a15.67,15.67,0,0,0,1.55-7A15.41,15.41,0,0,0,96,45.66,11.38,11.38,0,0,0,85.4,39.1a12.05,12.05,0,0,0-6.66,1.8,11.73,11.73,0,0,0-4.25,4.86,15.86,15.86,0,0,0-1.47,7,15.65,15.65,0,0,0,1.44,6.81,11.62,11.62,0,0,0,4.17,4.86A11.8,11.8,0,0,0,85.26,66.18Z"/><path d="M114.56,71V44.72a10.37,10.37,0,0,1,2.77-7.67A10.39,10.39,0,0,1,125,34.28h7.56V40h-6.34a4.88,4.88,0,0,0-3.7,1.37,5.22,5.22,0,0,0-1.34,3.81V71Z"/><path d="M138.46,71V44.72a10.41,10.41,0,0,1,2.77-7.67,10.41,10.41,0,0,1,7.67-2.77h7.56V40h-6.33a4.91,4.91,0,0,0-3.71,1.37,5.22,5.22,0,0,0-1.33,3.81V71Z"/><path d="M-7921,40H8462M166,19.52c-5.78-.05-5.78,9,0,8.93S171.74,19.47,166,19.52Zm-3.39,14.76V71h6.7V34.28Z"/><path d="M242,71.86a18.9,18.9,0,0,1-8.9-2A15.22,15.22,0,0,1,227,64.09a16.41,16.41,0,0,1-2.19-8.57V34.28h6.69V55.45a11,11,0,0,0,1.44,5.72,9.83,9.83,0,0,0,3.86,3.71,10.72,10.72,0,0,0,5.14,1.3,10.86,10.86,0,0,0,5.22-1.3A10,10,0,0,0,251,61.17a10.68,10.68,0,0,0,1.48-5.72V34.28h6.69V55.52A16.15,16.15,0,0,1,257,64.09a15.48,15.48,0,0,1-6.12,5.72A18.64,18.64,0,0,1,242,71.86Z"/><path d="M207.51,34.28H179.79V55.52A16.41,16.41,0,0,0,182,64.09a15.22,15.22,0,0,0,6.12,5.72,17.63,17.63,0,0,0,5.62,1.8V82.29H187V86h20V82.29h-6.73V71.61a17.24,17.24,0,0,0,5.58-1.8A15.48,15.48,0,0,0,212,64.09a16.15,16.15,0,0,0,2.23-8.57V34.28Zm0,21.17A10.68,10.68,0,0,1,206,61.17a10,10,0,0,1-3.89,3.71,10.86,10.86,0,0,1-5.22,1.3,10.72,10.72,0,0,1-5.14-1.3,9.83,9.83,0,0,1-3.86-3.71,11,11,0,0,1-1.44-5.72V40h21Z"/><path d="M288.36,71a24.35,24.35,0,0,1-10.73-2.27,17.41,17.41,0,0,1-7.3-6.41,17.59,17.59,0,0,1-2.63-9.68,21.23,21.23,0,0,1,2.23-9.83,17.37,17.37,0,0,1,6.19-6.87,16.79,16.79,0,0,1,9.22-2.52,17.11,17.11,0,0,1,9.47,2.44,15.15,15.15,0,0,1,5.65,6.59,22.19,22.19,0,0,1,1.87,9.25c0,.53,0,1.08,0,1.66a8.89,8.89,0,0,1-.17,1.51H274.75A10.77,10.77,0,0,0,277,60.6a11.51,11.51,0,0,0,4.79,3.52,16.75,16.75,0,0,0,6.44,1.19h9.57V71ZM274.68,50.19h20.95a16.05,16.05,0,0,0-.28-2.91,12.13,12.13,0,0,0-1-3,9.93,9.93,0,0,0-1.91-2.66,8.9,8.9,0,0,0-2.95-1.91,10.94,10.94,0,0,0-4.14-.72,9.6,9.6,0,0,0-4.43,1,10.61,10.61,0,0,0-3.28,2.59,11.76,11.76,0,0,0-2.08,3.64A15.32,15.32,0,0,0,274.68,50.19Z"/></svg>